# xmcd
#
# Track frame offsets:
#	150
#	15170
#	27818
#	36560
#	50590
#	60945
#	72758
#	88543
#	105328
#	117518
#
# Disc length: 1730 seconds
#
# Revision: 0
# Processed by: cddbd v1.5.1PL2 Copyright (c) Steve Scherf et al.
# Submitted via: dBpowerAMP V4.0
#
DISCID=7406c00a
DTITLE=Hans de Jong - Steel Along
DYEAR=1900
DGENRE=
TTITLE0=Piece of green
TTITLE1=High on you
TTITLE2=Snake in the grass
TTITLE3=Marlin
TTITLE4=All night juke
TTITLE5=If it ain't love
TTITLE6=Holding each other
TTITLE7=Crazy in love
TTITLE8=Who'll stop the rain
TTITLE9=Harbour lights
EXTD=
EXTT0=
EXTT1=
EXTT2=
EXTT3=
EXTT4=
EXTT5=
EXTT6=
EXTT7=
EXTT8=
EXTT9=
PLAYORDER=
